<svg xmlns="http://www.w3.org/2000/svg" version="1.1" xmlns:xlink="http://www.w3.org/1999/xlink" xmlns:svgjs="http://svgjs.com/svgjs" width="1920" height="1080" preserveAspectRatio="none" viewBox="0 0 1920 1080">
    <g mask="url(&quot;#SvgjsMask1010&quot;)" fill="none">
        <rect width="1920" height="1080" x="0" y="0" fill="rgba(31, 31, 31, 1)"></rect>
        <path d="M1984 1080L0 1080 L0 510.42Q108 522.42, 96 630.43Q168.09 606.51, 192 678.6Q227.38 617.98, 288 653.36Q295.15 564.51, 384 571.66Q436.27 463.93, 544 516.21Q598.96 475.17, 640 530.13Q778.92 509.05, 800 647.96Q887.99 575.95, 960 663.94Q986.58 594.52, 1056 621.09Q1088.82 557.9, 1152 590.72Q1187.08 465.8, 1312 500.88Q1403.59 432.47, 1472 524.06Q1572.67 528.73, 1568 629.4Q1662.75 564.15, 1728 658.9Q1750.33 585.23, 1824 607.56Q1845.27 468.83, 1984 490.1z" fill="rgba(55, 55, 55, 1)"></path>
        <path d="M2016 1080L0 1080 L0 731.5Q135 706.5, 160 841.51Q192.33 713.84, 320 746.16Q347.76 613.92, 480 641.68Q533.23 598.9, 576 652.13Q718.83 634.96, 736 777.79Q831.46 713.25, 896 808.7Q957.78 774.49, 992 836.27Q1006.93 691.2, 1152 706.14Q1207.48 665.62, 1248 721.1Q1270.36 647.46, 1344 669.82Q1413.81 579.63, 1504 649.44Q1605.66 591.11, 1664 692.77Q1773.84 706.61, 1760 816.44Q1755.63 716.07, 1856 711.69Q1918.28 613.97, 2016 676.25z" fill="rgba(89, 89, 89, 1)"></path>
        <path d="M2016 1080L0 1080 L0 891.2Q76.38 871.58, 96 947.95Q161.01 852.97, 256 917.98Q304.34 806.32, 416 854.65Q514.25 792.9, 576 891.15Q694.31 849.46, 736 967.78Q747.53 819.31, 896 830.83Q949.82 788.65, 992 842.48Q1018.53 773.01, 1088 799.54Q1173.25 724.79, 1248 810.04Q1392.06 794.1, 1408 938.16Q1450.71 884.87, 1504 927.58Q1508.83 836.41, 1600 841.24Q1656.53 737.77, 1760 794.3Q1891.86 766.16, 1920 898.02Q1941.35 823.37, 2016 844.71z" fill="rgba(139, 139, 139, 1)"></path>
        <path d="M1984 1080L0 1080 L0 989.03Q152.33 981.36, 160 1133.69Q166.6 1044.29, 256 1050.89Q312.48 947.38, 416 1003.86Q440.49 932.35, 512 956.83Q608.25 893.08, 672 989.33Q739.01 960.34, 768 1027.35Q813.13 912.48, 928 957.61Q1026.93 896.54, 1088 995.47Q1108.49 919.96, 1184 940.45Q1238.76 899.22, 1280 953.98Q1440.05 954.03, 1440 1114.07Q1422.18 1000.25, 1536 982.43Q1572.03 922.45, 1632 958.48Q1697.83 928.31, 1728 994.14Q1819.03 925.17, 1888 1016.2Q1893.77 925.97, 1984 931.73z" fill="white"></path>
    </g>
    <defs>
        <mask id="SvgjsMask1010">
            <rect width="1920" height="1080" fill="#ffffff"></rect>
        </mask>
    </defs>
</svg>